<?xml version="1.0" encoding="UTF-8" standalone="no"?>
<!DOCTYPE svg PUBLIC "-//W3C//DTD SVG 1.1//EN" "http://www.w3.org/Graphics/SVG/1.1/DTD/svg11.dtd">
<svg version="1.1" xmlns="http://www.w3.org/2000/svg" xmlns:xlink="http://www.w3.org/1999/xlink" preserveAspectRatio="xMidYMid meet" viewBox="0 0 640 640" width="1000" height="1000"><defs><path d="M-4.75 0L644.75 0L644.75 25.74L-4.75 25.74L-4.75 0Z" id="g7qlGY5Hk"></path><path d="M-4.75 25.74L644.75 25.74L644.75 51.49L-4.75 51.49L-4.75 25.74Z" id="c4xhidSdKe"></path><path d="M-4.75 51.49L644.75 51.49L644.75 77.23L-4.75 77.23L-4.75 51.49Z" id="ab3VYoBPp"></path><path d="M-4.75 77.23L644.75 77.23L644.75 102.97L-4.75 102.97L-4.75 77.23Z" id="h1BcCFGZKf"></path><path d="M-4.75 102.97L644.75 102.97L644.75 128.71L-4.75 128.71L-4.75 102.97Z" id="a7E7Ct9r2l"></path><path d="M-4.75 128.71L644.75 128.71L644.75 154.46L-4.75 154.46L-4.75 128.71Z" id="a1nWBV6TBF"></path><path d="M-4.75 154.46L644.75 154.46L644.75 180.2L-4.75 180.2L-4.75 154.46Z" id="a2iQuyeamf"></path><path d="M-4.75 180.2L644.75 180.2L644.75 205.94L-4.75 205.94L-4.75 180.2Z" id="b1OcP3TF68"></path><path d="M-4.75 205.94L644.75 205.94L644.75 231.68L-4.75 231.68L-4.75 205.94Z" id="bYokVLq8P"></path><path d="M-4.75 231.68L644.75 231.68L644.75 257.43L-4.75 257.43L-4.75 231.68Z" id="b5rWviSv6c"></path><path d="M-4.75 257.43L644.75 257.43L644.75 283.17L-4.75 283.17L-4.75 257.43Z" id="eroj7IMWJ"></path><path d="M-4.75 283.17L644.75 283.17L644.75 308.91L-4.75 308.91L-4.75 283.17Z" id="ccbvrHINm"></path><path d="M-4.75 308.91L644.75 308.91L644.75 334.65L-4.75 334.65L-4.75 308.91Z" id="d4j0a32yD"></path><path d="M-4.75 334.65L644.75 334.65L644.75 360.4L-4.75 360.4L-4.75 334.65Z" id="cG0U5lfed"></path><path d="M-4.75 360.4L644.75 360.4L644.75 386.14L-4.75 386.14L-4.75 360.4Z" id="b5uFL578Xg"></path><path d="M-4.75 386.14L644.75 386.14L644.75 411.88L-4.75 411.88L-4.75 386.14Z" id="d2UtJU7mu8"></path><path d="M-4.75 257.43L644.75 257.43L644.75 283.17L-4.75 283.17L-4.75 257.43Z" id="dNNW9aLUb"></path><path d="M-4.75 283.17L644.75 283.17L644.75 308.91L-4.75 308.91L-4.75 283.17Z" id="i2M7eYH79F"></path><path d="M-4.75 308.91L644.75 308.91L644.75 334.65L-4.75 334.65L-4.75 308.91Z" id="a8GhM8ctW"></path><path d="M-4.75 334.65L644.75 334.65L644.75 360.4L-4.75 360.4L-4.75 334.65Z" id="cdqKpKODb"></path><path d="M-4.75 360.4L644.75 360.4L644.75 386.14L-4.75 386.14L-4.75 360.4Z" id="dqbYavmtM"></path><path d="M-4.75 386.14L644.75 386.14L644.75 411.88L-4.75 411.88L-4.75 386.14Z" id="e2V3iyIzW5"></path><path d="M-4.75 411.88L644.75 411.88L644.75 437.62L-4.75 437.62L-4.75 411.88Z" id="b3rhPMPx6x"></path><path d="M-4.75 437.62L644.75 437.62L644.75 463.37L-4.75 463.37L-4.75 437.62Z" id="b29TWnT2gm"></path><path d="M-4.75 463.37L644.75 463.37L644.75 489.11L-4.75 489.11L-4.75 463.37Z" id="aLQNs1cqb"></path><path d="M-4.75 489.11L644.75 489.11L644.75 514.85L-4.75 514.85L-4.75 489.11Z" id="fFyztmJFN"></path><path d="M-4.75 514.85L644.75 514.85L644.75 540.59L-4.75 540.59L-4.75 514.85Z" id="daVkQO0md"></path><path d="M-4.75 540.59L644.75 540.59L644.75 566.34L-4.75 566.34L-4.75 540.59Z" id="bxLwCynQ9"></path><path d="M-4.75 566.34L644.75 566.34L644.75 592.08L-4.75 592.08L-4.75 566.34Z" id="aOWUTtVm"></path><path d="M-4.75 592.08L644.75 592.08L644.75 617.82L-4.75 617.82L-4.75 592.08Z" id="a28JGRqVeQ"></path><path d="M-4.75 617.82L644.75 617.82L644.75 643.56L-4.75 643.56L-4.75 617.82Z" id="b5Kd8OEx1n"></path><path d="M-4.75 643.56L644.75 643.56L644.75 669.31L-4.75 669.31L-4.75 643.56Z" id="g2LBN7juTN"></path></defs><g><g><g><use xlink:href="#g7qlGY5Hk" opacity="1" fill="#777777" fill-opacity="1"></use></g><g><use xlink:href="#c4xhidSdKe" opacity="1" fill="#484848" fill-opacity="1"></use></g><g><use xlink:href="#ab3VYoBPp" opacity="1" fill="#777777" fill-opacity="1"></use></g><g><use xlink:href="#h1BcCFGZKf" opacity="1" fill="#484848" fill-opacity="1"></use></g><g><use xlink:href="#a7E7Ct9r2l" opacity="1" fill="#777777" fill-opacity="1"></use></g><g><use xlink:href="#a1nWBV6TBF" opacity="1" fill="#484848" fill-opacity="1"></use></g><g><use xlink:href="#a2iQuyeamf" opacity="1" fill="#777777" fill-opacity="1"></use></g><g><use xlink:href="#b1OcP3TF68" opacity="1" fill="#484848" fill-opacity="1"></use></g><g><use xlink:href="#bYokVLq8P" opacity="1" fill="#777777" fill-opacity="1"></use></g><g><use xlink:href="#b5rWviSv6c" opacity="1" fill="#484848" fill-opacity="1"></use></g><g><use xlink:href="#eroj7IMWJ" opacity="1" fill="#777777" fill-opacity="1"></use></g><g><use xlink:href="#ccbvrHINm" opacity="1" fill="#484848" fill-opacity="1"></use></g><g><use xlink:href="#d4j0a32yD" opacity="1" fill="#777777" fill-opacity="1"></use></g><g><use xlink:href="#cG0U5lfed" opacity="1" fill="#484848" fill-opacity="1"></use></g><g><use xlink:href="#b5uFL578Xg" opacity="1" fill="#777777" fill-opacity="1"></use></g><g><use xlink:href="#d2UtJU7mu8" opacity="1" fill="#484848" fill-opacity="1"></use></g><g><use xlink:href="#dNNW9aLUb" opacity="1" fill="#777777" fill-opacity="1"></use></g><g><use xlink:href="#i2M7eYH79F" opacity="1" fill="#484848" fill-opacity="1"></use></g><g><use xlink:href="#a8GhM8ctW" opacity="1" fill="#777777" fill-opacity="1"></use></g><g><use xlink:href="#cdqKpKODb" opacity="1" fill="#484848" fill-opacity="1"></use></g><g><use xlink:href="#dqbYavmtM" opacity="1" fill="#777777" fill-opacity="1"></use></g><g><use xlink:href="#e2V3iyIzW5" opacity="1" fill="#484848" fill-opacity="1"></use></g><g><use xlink:href="#b3rhPMPx6x" opacity="1" fill="#777777" fill-opacity="1"></use></g><g><use xlink:href="#b29TWnT2gm" opacity="1" fill="#484848" fill-opacity="1"></use></g><g><use xlink:href="#aLQNs1cqb" opacity="1" fill="#777777" fill-opacity="1"></use></g><g><use xlink:href="#fFyztmJFN" opacity="1" fill="#484848" fill-opacity="1"></use></g><g><use xlink:href="#daVkQO0md" opacity="1" fill="#777777" fill-opacity="1"></use></g><g><use xlink:href="#bxLwCynQ9" opacity="1" fill="#484848" fill-opacity="1"></use></g><g><use xlink:href="#aOWUTtVm" opacity="1" fill="#777777" fill-opacity="1"></use></g><g><use xlink:href="#a28JGRqVeQ" opacity="1" fill="#484848" fill-opacity="1"></use></g><g><use xlink:href="#b5Kd8OEx1n" opacity="1" fill="#777777" fill-opacity="1"></use></g><g><use xlink:href="#g2LBN7juTN" opacity="1" fill="#484848" fill-opacity="1"></use></g></g></g></svg>